<?xml version="1.0" encoding="UTF-8"?>
<!DOCTYPE svg PUBLIC "-//W3C//DTD SVG 1.1//EN" "http://www.w3.org/Graphics/SVG/1.1/DTD/svg11.dtd">
<svg xmlns="http://www.w3.org/2000/svg" version="1.1" width="48px" height="103px" style="shape-rendering:geometricPrecision; text-rendering:geometricPrecision; image-rendering:optimizeQuality; fill-rule:evenodd; clip-rule:evenodd" xmlns:xlink="http://www.w3.org/1999/xlink">
<g><path style="opacity:0.963" fill="#f5be02" d="M 2.5,-0.5 C 16.5,-0.5 30.5,-0.5 44.5,-0.5C 45.1667,0.833333 46.1667,1.83333 47.5,2.5C 47.5,32.5 47.5,62.5 47.5,92.5C 46.7109,92.7828 46.0442,93.2828 45.5,94C 30.8333,94.6667 16.1667,94.6667 1.5,94C 0.955796,93.2828 0.28913,92.7828 -0.5,92.5C -0.5,62.5 -0.5,32.5 -0.5,2.5C 0.833333,1.83333 1.83333,0.833333 2.5,-0.5 Z"/></g>
<g><path style="opacity:1" fill="#fefcfb" d="M 5.5,2.5 C 17.5046,2.33346 29.5046,2.50013 41.5,3C 42.3333,3.83333 43.1667,4.66667 44,5.5C 44.6667,29.8333 44.6667,54.1667 44,78.5C 43.1667,79.3333 42.3333,80.1667 41.5,81C 29.5,81.6667 17.5,81.6667 5.5,81C 5,80.5 4.5,80 4,79.5C 2.36241,54.8962 2.02908,30.2295 3,5.5C 4.04499,4.62656 4.87833,3.62656 5.5,2.5 Z"/></g>
<g><path style="opacity:1" fill="#ac342f" d="M 27.5,5.5 C 29.3258,7.45511 29.8258,9.78844 29,12.5C 25,17.1667 21,21.8333 17,26.5C 16.5942,30.9609 16.9275,35.2942 18,39.5C 13.2552,35.1824 11.2552,29.849 12,23.5C 18.1246,18.2173 23.2913,12.2173 27.5,5.5 Z"/></g>
<g><path style="opacity:1" fill="#f8c61f" d="M 22.5,33.5 C 21.5416,33.9528 20.7083,34.6195 20,35.5C 18.1599,33.8346 17.4932,31.8346 18,29.5C 22.0223,24.9788 25.8556,20.3121 29.5,15.5C 31.124,16.8689 31.624,18.5355 31,20.5C 28.7046,23.7974 26.038,26.7974 23,29.5C 22.51,30.7932 22.3433,32.1266 22.5,33.5 Z"/></g>
<g><path style="opacity:1" fill="#aa2f2b" d="M 36.5,27.5 C 32.5357,30.9629 28.7023,34.6295 25,38.5C 24.0124,41.4245 23.3457,44.4245 23,47.5C 19.9331,42.8928 19.7664,38.2261 22.5,33.5C 28.1692,29.9968 32.6692,25.3302 36,19.5C 37.8135,22.0782 37.9802,24.7449 36.5,27.5 Z"/></g>
<g><path style="opacity:1" fill="#f9c823" d="M 36.5,27.5 C 37.4959,27.4142 38.3292,27.7476 39,28.5C 39.6667,30.5 39.6667,32.5 39,34.5C 34.0325,38.466 29.3658,42.7993 25,47.5C 24.2937,45.0288 24.627,42.6954 26,40.5C 28.039,38.1255 30.3723,36.1255 33,34.5C 34.1932,32.1136 35.3599,29.7802 36.5,27.5 Z"/></g>
<g><path style="opacity:1" fill="#a92d27" d="M 6.5,47.5 C 12.7942,48.012 18.4608,50.012 23.5,53.5C 23.8261,62.0168 23.4927,70.3501 22.5,78.5C 20.1667,77.8333 17.8333,77.1667 15.5,76.5C 12.3451,66.8799 9.34506,57.2133 6.5,47.5 Z"/></g>
<g><path style="opacity:1" fill="#f7c311" d="M 40.5,47.5 C 37.5,56.8333 34.5,66.1667 31.5,75.5C 28.9058,76.83 26.2392,78.1634 23.5,79.5C 22.8933,79.3764 22.56,79.0431 22.5,78.5C 23.4927,70.3501 23.8261,62.0168 23.5,53.5C 28.2383,49.3191 33.9049,47.3191 40.5,47.5 Z"/></g>
<g><path style="opacity:1" fill="#fcdc4d" d="M 6.5,47.5 C 9.34506,57.2133 12.3451,66.8799 15.5,76.5C 14.2502,76.4226 13.4169,75.756 13,74.5C 10.467,65.7345 7.63371,57.0678 4.5,48.5C 4.95689,47.7025 5.62356,47.3691 6.5,47.5 Z"/></g>
<g><path style="opacity:1" fill="#d07370" d="M 40.5,47.5 C 41.2891,47.7828 41.9558,48.2828 42.5,49C 39.5309,58.2408 36.3643,67.4074 33,76.5C 32.6174,75.944 32.1174,75.6107 31.5,75.5C 34.5,66.1667 37.5,56.8333 40.5,47.5 Z"/></g>
<g><path style="opacity:1" fill="#b54522" d="M 20.5,83.5 C 27.5692,83.7433 27.9026,84.5766 21.5,86C 28.0784,86.8854 28.0784,88.052 21.5,89.5C 23.8333,90.1667 26.1667,90.8333 28.5,91.5C 19.8104,94.1484 17.1438,91.4818 20.5,83.5 Z"/></g>
<g><path style="opacity:1" fill="#b03b23" d="M 36.5,91.5 C 34.2646,91.7947 32.2646,91.4614 30.5,90.5C 37.1362,89.9782 37.1362,89.1449 30.5,88C 28.9799,84.3407 30.3132,82.8407 34.5,83.5C 35.8333,83.8333 37.1667,84.1667 38.5,84.5C 36.5767,85.3078 34.5767,85.8078 32.5,86C 34.433,86.2511 36.2663,86.7511 38,87.5C 38.7726,89.3524 38.2726,90.6857 36.5,91.5 Z"/></g>
<g><path style="opacity:1" fill="#aa3126" d="M 6.5,83.5 C 7.4959,83.4142 8.32924,83.7476 9,84.5C 10.3333,91.1667 11.6667,91.1667 13,84.5C 13.8928,83.2888 14.7261,83.2888 15.5,84.5C 11.6459,93.8903 8.6459,93.557 6.5,83.5 Z"/></g>
<g><path style="opacity:1" fill="#d07310" d="M 30.5,90.5 C 32.2646,91.4614 34.2646,91.7947 36.5,91.5C 34.3066,92.7969 31.9732,92.7969 29.5,91.5C 29.6236,90.8933 29.9569,90.56 30.5,90.5 Z"/></g>
<g><path style="opacity:1" fill="#3706e7" d="M 7.5,102.5 C 6.16667,102.5 4.83333,102.5 3.5,102.5C 4.26253,101.732 5.26253,101.232 6.5,101C 5.55198,100.517 4.55198,100.351 3.5,100.5C 3.5,99.1667 3.5,97.8333 3.5,96.5C 8.04069,96.3309 8.37403,96.9975 4.5,98.5C 5.32496,99.3857 6.32496,99.719 7.5,99.5C 7.5,100.5 7.5,101.5 7.5,102.5 Z"/></g>
<g><path style="opacity:1" fill="#3706e7" d="M 9.5,102.5 C 9.16667,102.5 8.83333,102.5 8.5,102.5C 8.83333,94.5 9.16667,94.5 9.5,102.5 Z"/></g>
<g><path style="opacity:1" fill="#3706e7" d="M 12.5,98.5 C 11.5655,99.5676 11.2322,100.901 11.5,102.5C 11.1667,102.5 10.8333,102.5 10.5,102.5C 10.3379,100.473 10.5045,98.4727 11,96.5C 11.7172,97.0442 12.2172,97.7109 12.5,98.5 Z"/></g>
<g><path style="opacity:1" fill="#3706e7" d="M 15.5,102.5 C 15.1667,102.5 14.8333,102.5 14.5,102.5C 14.4431,101.391 14.1098,100.391 13.5,99.5C 14.2679,98.7375 14.7679,97.7375 15,96.5C 15.4955,98.4727 15.6621,100.473 15.5,102.5 Z"/></g>
<g><path style="opacity:1" fill="#3706e7" d="M 19.5,102.5 C 18.5,102.5 17.5,102.5 16.5,102.5C 16.5,100.5 16.5,98.5 16.5,96.5C 17.552,96.3505 18.552,96.5172 19.5,97C 16.9824,98.8101 16.9824,100.643 19.5,102.5 Z"/></g>
<g><path style="opacity:1" fill="#3706e7" d="M 24.5,102.5 C 23.1667,102.5 21.8333,102.5 20.5,102.5C 20.5,100.5 20.5,98.5 20.5,96.5C 24.8926,96.4568 25.2259,96.9568 21.5,98C 25.3605,98.5691 25.3605,99.4024 21.5,100.5C 22.6016,101.176 23.6016,101.842 24.5,102.5 Z"/></g>
<g><path style="opacity:1" fill="#3706e7" d="M 30.5,102.5 C 30.1667,102.5 29.8333,102.5 29.5,102.5C 29.7135,100.856 29.3802,99.3561 28.5,98C 29,97.5 29.5,97 30,96.5C 30.4955,98.4727 30.6621,100.473 30.5,102.5 Z"/></g>
<g><path style="opacity:1" fill="#3706e7" d="M 34.5,102.5 C 33.5,102.5 32.5,102.5 31.5,102.5C 31.9175,101.778 32.5842,101.278 33.5,101C 31.8934,99.951 31.2267,98.451 31.5,96.5C 32.5,96.5 33.5,96.5 34.5,96.5C 34.5,98.5 34.5,100.5 34.5,102.5 Z"/></g>
<g><path style="opacity:1" fill="#3706e7" d="M 38.5,102.5 C 37.5,102.5 36.5,102.5 35.5,102.5C 35.5,100.5 35.5,98.5 35.5,96.5C 38.7973,96.3287 39.1306,96.9954 36.5,98.5C 37.8532,99.5237 38.5198,100.857 38.5,102.5 Z"/></g>
<g><path style="opacity:1" fill="#3706e7" d="M 42.5,102.5 C 41.5,102.5 40.5,102.5 39.5,102.5C 39.4802,100.857 40.1468,99.5237 41.5,98.5C 38.8694,96.9954 39.2027,96.3287 42.5,96.5C 42.7733,98.451 42.1066,99.951 40.5,101C 41.4158,101.278 42.0825,101.778 42.5,102.5 Z"/></g>
<g><path style="opacity:1" fill="#3706e7" d="M 12.5,98.5 C 13.1667,98.5 13.5,98.8333 13.5,99.5C 13.1667,99.1667 12.8333,98.8333 12.5,98.5 Z"/></g>
</svg>
